<?xml version="1.0" encoding="UTF-8" standalone="no"?>
<!DOCTYPE svg PUBLIC "-//W3C//DTD SVG 1.1//EN"
 "http://www.w3.org/Graphics/SVG/1.1/DTD/svg11.dtd">
<!-- Generated by graphviz version 2.44.2~dev.20200908.1456 (20200908.1456)
 -->
<!-- Title: G Pages: 1 -->
<svg width="1144pt" height="250pt"
 viewBox="0.00 0.00 1144.20 250.20" xmlns="http://www.w3.org/2000/svg" xmlns:xlink="http://www.w3.org/1999/xlink">
<g id="graph0" class="graph" transform="scale(1 1) rotate(0) translate(21.6 228.6)">
<title>G</title>
<polygon fill="#111111" stroke="transparent" points="-21.6,21.6 -21.6,-228.6 1122.6,-228.6 1122.6,21.6 -21.6,21.6"/>
<!-- .internal/baseSortedIndex.js -->
<g id="node1" class="node">
<title>.internal/baseSortedIndex.js</title>
<path fill="none" stroke="#c6c5fe" d="M559.33,-166C559.33,-166 381.67,-166 381.67,-166 377.83,-166 374,-162.17 374,-158.33 374,-158.33 374,-150.67 374,-150.67 374,-146.83 377.83,-143 381.67,-143 381.67,-143 559.33,-143 559.33,-143 563.17,-143 567,-146.83 567,-150.67 567,-150.67 567,-158.33 567,-158.33 567,-162.17 563.17,-166 559.33,-166"/>
<text text-anchor="middle" x="470.5" y="-150.8" font-family="Arial" font-size="14.00" fill="#c6c5fe">.internal/baseSortedIndex.js</text>
</g>
<!-- .internal/baseSortedIndexBy.js -->
<g id="node2" class="node">
<title>.internal/baseSortedIndexBy.js</title>
<path fill="none" stroke="#c6c5fe" d="M804.33,-125C804.33,-125 610.67,-125 610.67,-125 606.83,-125 603,-121.17 603,-117.33 603,-117.33 603,-109.67 603,-109.67 603,-105.83 606.83,-102 610.67,-102 610.67,-102 804.33,-102 804.33,-102 808.17,-102 812,-105.83 812,-109.67 812,-109.67 812,-117.33 812,-117.33 812,-121.17 808.17,-125 804.33,-125"/>
<text text-anchor="middle" x="707.5" y="-109.8" font-family="Arial" font-size="14.00" fill="#c6c5fe">.internal/baseSortedIndexBy.js</text>
</g>
<!-- .internal/baseSortedIndex.js&#45;&gt;.internal/baseSortedIndexBy.js -->
<g id="edge1" class="edge">
<title>.internal/baseSortedIndex.js:&#45;&gt;.internal/baseSortedIndexBy.js:</title>
<path fill="none" stroke="#757575" d="M537.59,-142.97C566.49,-137.93 600.57,-131.98 630.52,-126.76"/>
<polygon fill="#757575" stroke="#757575" points="631.25,-130.18 640.5,-125.01 630.05,-123.29 631.25,-130.18"/>
</g>
<!-- isSymbol.js -->
<g id="node3" class="node">
<title>isSymbol.js</title>
<path fill="none" stroke="#c6c5fe" d="M929.33,-145C929.33,-145 855.67,-145 855.67,-145 851.83,-145 848,-141.17 848,-137.33 848,-137.33 848,-129.67 848,-129.67 848,-125.83 851.83,-122 855.67,-122 855.67,-122 929.33,-122 929.33,-122 933.17,-122 937,-125.83 937,-129.67 937,-129.67 937,-137.33 937,-137.33 937,-141.17 933.17,-145 929.33,-145"/>
<text text-anchor="middle" x="892.5" y="-129.8" font-family="Arial" font-size="14.00" fill="#c6c5fe">isSymbol.js</text>
</g>
<!-- .internal/baseSortedIndex.js&#45;&gt;isSymbol.js -->
<g id="edge2" class="edge">
<title>.internal/baseSortedIndex.js:&#45;&gt;isSymbol.js:</title>
<path fill="none" stroke="#757575" d="M567.07,-149.72C650.88,-145.53 769.69,-139.59 837.85,-136.18"/>
<polygon fill="#757575" stroke="#757575" points="838.12,-139.67 847.93,-135.68 837.77,-132.68 838.12,-139.67"/>
</g>
<!-- .internal/baseSortedIndexBy.js&#45;&gt;isSymbol.js -->
<g id="edge3" class="edge">
<title>.internal/baseSortedIndexBy.js:&#45;&gt;isSymbol.js:</title>
<path fill="none" stroke="#757575" d="M812.03,-124.81C820.9,-125.78 829.62,-126.74 837.84,-127.64"/>
<polygon fill="#757575" stroke="#757575" points="837.65,-131.14 847.97,-128.74 838.41,-124.18 837.65,-131.14"/>
</g>
<!-- .internal/getTag.js -->
<g id="node6" class="node">
<title>.internal/getTag.js</title>
<path fill="none" stroke="#cfffac" d="M1093.33,-145C1093.33,-145 980.67,-145 980.67,-145 976.83,-145 973,-141.17 973,-137.33 973,-137.33 973,-129.67 973,-129.67 973,-125.83 976.83,-122 980.67,-122 980.67,-122 1093.33,-122 1093.33,-122 1097.17,-122 1101,-125.83 1101,-129.67 1101,-129.67 1101,-137.33 1101,-137.33 1101,-141.17 1097.17,-145 1093.33,-145"/>
<text text-anchor="middle" x="1037" y="-129.8" font-family="Arial" font-size="14.00" fill="#cfffac">.internal/getTag.js</text>
</g>
<!-- isSymbol.js&#45;&gt;.internal/getTag.js -->
<g id="edge5" class="edge">
<title>isSymbol.js:&#45;&gt;.internal/getTag.js:</title>
<path fill="none" stroke="#757575" d="M937.03,-133.5C945.15,-133.5 953.83,-133.5 962.57,-133.5"/>
<polygon fill="#757575" stroke="#757575" points="962.8,-137 972.8,-133.5 962.8,-130 962.8,-137"/>
</g>
<!-- .internal/baseSortedUniq.js -->
<g id="node4" class="node">
<title>.internal/baseSortedUniq.js</title>
<path fill="none" stroke="#c6c5fe" d="M330.33,-43C330.33,-43 159.67,-43 159.67,-43 155.83,-43 152,-39.17 152,-35.33 152,-35.33 152,-27.67 152,-27.67 152,-23.83 155.83,-20 159.67,-20 159.67,-20 330.33,-20 330.33,-20 334.17,-20 338,-23.83 338,-27.67 338,-27.67 338,-35.33 338,-35.33 338,-39.17 334.17,-43 330.33,-43"/>
<text text-anchor="middle" x="245" y="-27.8" font-family="Arial" font-size="14.00" fill="#c6c5fe">.internal/baseSortedUniq.js</text>
</g>
<!-- eq.js -->
<g id="node5" class="node">
<title>eq.js</title>
<path fill="none" stroke="#cfffac" d="M489.83,-43C489.83,-43 451.17,-43 451.17,-43 447.33,-43 443.5,-39.17 443.5,-35.33 443.5,-35.33 443.5,-27.67 443.5,-27.67 443.5,-23.83 447.33,-20 451.17,-20 451.17,-20 489.83,-20 489.83,-20 493.67,-20 497.5,-23.83 497.5,-27.67 497.5,-27.67 497.5,-35.33 497.5,-35.33 497.5,-39.17 493.67,-43 489.83,-43"/>
<text text-anchor="middle" x="470.5" y="-27.8" font-family="Arial" font-size="14.00" fill="#cfffac">eq.js</text>
</g>
<!-- .internal/baseSortedUniq.js&#45;&gt;eq.js -->
<g id="edge4" class="edge">
<title>.internal/baseSortedUniq.js:&#45;&gt;eq.js:</title>
<path fill="none" stroke="#757575" d="M338.2,-31.5C371.59,-31.5 407.39,-31.5 433.16,-31.5"/>
<polygon fill="#757575" stroke="#757575" points="433.21,-35 443.21,-31.5 433.21,-28 433.21,-35"/>
</g>
<!-- sortedIndex.js -->
<g id="node7" class="node">
<title>sortedIndex.js</title>
<path fill="none" stroke="#c6c5fe" d="M290.83,-166C290.83,-166 199.17,-166 199.17,-166 195.33,-166 191.5,-162.17 191.5,-158.33 191.5,-158.33 191.5,-150.67 191.5,-150.67 191.5,-146.83 195.33,-143 199.17,-143 199.17,-143 290.83,-143 290.83,-143 294.67,-143 298.5,-146.83 298.5,-150.67 298.5,-150.67 298.5,-158.33 298.5,-158.33 298.5,-162.17 294.67,-166 290.83,-166"/>
<text text-anchor="middle" x="245" y="-150.8" font-family="Arial" font-size="14.00" fill="#c6c5fe">sortedIndex.js</text>
</g>
<!-- sortedIndex.js&#45;&gt;.internal/baseSortedIndex.js -->
<g id="edge6" class="edge">
<title>sortedIndex.js:&#45;&gt;.internal/baseSortedIndex.js:</title>
<path fill="none" stroke="#757575" d="M298.68,-154.5C318.24,-154.5 341.19,-154.5 363.81,-154.5"/>
<polygon fill="#757575" stroke="#757575" points="363.82,-158 373.82,-154.5 363.82,-151 363.82,-158"/>
</g>
<!-- sortedIndexBy.js -->
<g id="node8" class="node">
<title>sortedIndexBy.js</title>
<path fill="none" stroke="#c6c5fe" d="M524.33,-125C524.33,-125 416.67,-125 416.67,-125 412.83,-125 409,-121.17 409,-117.33 409,-117.33 409,-109.67 409,-109.67 409,-105.83 412.83,-102 416.67,-102 416.67,-102 524.33,-102 524.33,-102 528.17,-102 532,-105.83 532,-109.67 532,-109.67 532,-117.33 532,-117.33 532,-121.17 528.17,-125 524.33,-125"/>
<text text-anchor="middle" x="470.5" y="-109.8" font-family="Arial" font-size="14.00" fill="#c6c5fe">sortedIndexBy.js</text>
</g>
<!-- sortedIndexBy.js&#45;&gt;.internal/baseSortedIndexBy.js -->
<g id="edge7" class="edge">
<title>sortedIndexBy.js:&#45;&gt;.internal/baseSortedIndexBy.js:</title>
<path fill="none" stroke="#757575" d="M532.02,-113.5C550.6,-113.5 571.69,-113.5 592.63,-113.5"/>
<polygon fill="#757575" stroke="#757575" points="592.88,-117 602.88,-113.5 592.88,-110 592.88,-117"/>
</g>
<!-- sortedIndexOf.js -->
<g id="node9" class="node">
<title>sortedIndexOf.js</title>
<path fill="none" stroke="#c6c5fe" d="M298.33,-84C298.33,-84 191.67,-84 191.67,-84 187.83,-84 184,-80.17 184,-76.33 184,-76.33 184,-68.67 184,-68.67 184,-64.83 187.83,-61 191.67,-61 191.67,-61 298.33,-61 298.33,-61 302.17,-61 306,-64.83 306,-68.67 306,-68.67 306,-76.33 306,-76.33 306,-80.17 302.17,-84 298.33,-84"/>
<text text-anchor="middle" x="245" y="-68.8" font-family="Arial" font-size="14.00" fill="#c6c5fe">sortedIndexOf.js</text>
</g>
<!-- sortedIndexOf.js&#45;&gt;.internal/baseSortedIndex.js -->
<g id="edge8" class="edge">
<title>sortedIndexOf.js:&#45;&gt;.internal/baseSortedIndex.js:</title>
<path fill="none" stroke="#757575" d="M306.01,-80.48C317.13,-83.52 328.29,-87.71 338,-93.5 358.83,-105.91 353.06,-122.28 374,-134.5 376.85,-136.17 379.83,-137.69 382.88,-139.09"/>
<polygon fill="#757575" stroke="#757575" points="381.69,-142.39 392.27,-142.93 384.34,-135.91 381.69,-142.39"/>
</g>
<!-- sortedIndexOf.js&#45;&gt;eq.js -->
<g id="edge9" class="edge">
<title>sortedIndexOf.js:&#45;&gt;eq.js:</title>
<path fill="none" stroke="#757575" d="M306.19,-61.46C346.73,-54.02 398.87,-44.46 433.19,-38.16"/>
<polygon fill="#757575" stroke="#757575" points="434.03,-41.56 443.24,-36.32 432.77,-34.68 434.03,-41.56"/>
</g>
<!-- sortedLastIndex.js -->
<g id="node10" class="node">
<title>sortedLastIndex.js</title>
<path fill="none" stroke="#c6c5fe" d="M304.33,-207C304.33,-207 185.67,-207 185.67,-207 181.83,-207 178,-203.17 178,-199.33 178,-199.33 178,-191.67 178,-191.67 178,-187.83 181.83,-184 185.67,-184 185.67,-184 304.33,-184 304.33,-184 308.17,-184 312,-187.83 312,-191.67 312,-191.67 312,-199.33 312,-199.33 312,-203.17 308.17,-207 304.33,-207"/>
<text text-anchor="middle" x="245" y="-191.8" font-family="Arial" font-size="14.00" fill="#c6c5fe">sortedLastIndex.js</text>
</g>
<!-- sortedLastIndex.js&#45;&gt;.internal/baseSortedIndex.js -->
<g id="edge10" class="edge">
<title>sortedLastIndex.js:&#45;&gt;.internal/baseSortedIndex.js:</title>
<path fill="none" stroke="#757575" d="M308.85,-183.97C336.22,-178.95 368.47,-173.03 396.87,-167.82"/>
<polygon fill="#757575" stroke="#757575" points="397.53,-171.26 406.73,-166.01 396.27,-164.38 397.53,-171.26"/>
</g>
<!-- sortedLastIndexBy.js -->
<g id="node11" class="node">
<title>sortedLastIndexBy.js</title>
<path fill="none" stroke="#c6c5fe" d="M537.83,-84C537.83,-84 403.17,-84 403.17,-84 399.33,-84 395.5,-80.17 395.5,-76.33 395.5,-76.33 395.5,-68.67 395.5,-68.67 395.5,-64.83 399.33,-61 403.17,-61 403.17,-61 537.83,-61 537.83,-61 541.67,-61 545.5,-64.83 545.5,-68.67 545.5,-68.67 545.5,-76.33 545.5,-76.33 545.5,-80.17 541.67,-84 537.83,-84"/>
<text text-anchor="middle" x="470.5" y="-68.8" font-family="Arial" font-size="14.00" fill="#c6c5fe">sortedLastIndexBy.js</text>
</g>
<!-- sortedLastIndexBy.js&#45;&gt;.internal/baseSortedIndexBy.js -->
<g id="edge11" class="edge">
<title>sortedLastIndexBy.js:&#45;&gt;.internal/baseSortedIndexBy.js:</title>
<path fill="none" stroke="#757575" d="M537.59,-84.03C566.49,-89.07 600.57,-95.02 630.52,-100.24"/>
<polygon fill="#757575" stroke="#757575" points="630.05,-103.71 640.5,-101.99 631.25,-96.82 630.05,-103.71"/>
</g>
<!-- sortedLastIndexOf.js -->
<g id="node12" class="node">
<title>sortedLastIndexOf.js</title>
<path fill="none" stroke="#c6c5fe" d="M311.83,-125C311.83,-125 178.17,-125 178.17,-125 174.33,-125 170.5,-121.17 170.5,-117.33 170.5,-117.33 170.5,-109.67 170.5,-109.67 170.5,-105.83 174.33,-102 178.17,-102 178.17,-102 311.83,-102 311.83,-102 315.67,-102 319.5,-105.83 319.5,-109.67 319.5,-109.67 319.5,-117.33 319.5,-117.33 319.5,-121.17 315.67,-125 311.83,-125"/>
<text text-anchor="middle" x="245" y="-109.8" font-family="Arial" font-size="14.00" fill="#c6c5fe">sortedLastIndexOf.js</text>
</g>
<!-- sortedLastIndexOf.js&#45;&gt;.internal/baseSortedIndex.js -->
<g id="edge12" class="edge">
<title>sortedLastIndexOf.js:&#45;&gt;.internal/baseSortedIndex.js:</title>
<path fill="none" stroke="#757575" d="M308.85,-125.03C336.22,-130.05 368.47,-135.97 396.87,-141.18"/>
<polygon fill="#757575" stroke="#757575" points="396.27,-144.62 406.73,-142.99 397.53,-137.74 396.27,-144.62"/>
</g>
<!-- sortedLastIndexOf.js&#45;&gt;eq.js -->
<g id="edge13" class="edge">
<title>sortedLastIndexOf.js:&#45;&gt;eq.js:</title>
<path fill="none" stroke="#757575" d="M319.93,-101.9C326.25,-99.59 332.37,-96.82 338,-93.5 358.9,-81.2 353.12,-64.83 374,-52.5 391.88,-41.94 414.49,-36.68 433.21,-34.06"/>
<polygon fill="#757575" stroke="#757575" points="433.65,-37.53 443.16,-32.86 432.81,-30.58 433.65,-37.53"/>
</g>
<!-- sortedUniq.js -->
<g id="node13" class="node">
<title>sortedUniq.js</title>
<path fill="none" stroke="#c6c5fe" d="M100.33,-64C100.33,-64 15.67,-64 15.67,-64 11.83,-64 8,-60.17 8,-56.33 8,-56.33 8,-48.67 8,-48.67 8,-44.83 11.83,-41 15.67,-41 15.67,-41 100.33,-41 100.33,-41 104.17,-41 108,-44.83 108,-48.67 108,-48.67 108,-56.33 108,-56.33 108,-60.17 104.17,-64 100.33,-64"/>
<text text-anchor="middle" x="58" y="-48.8" font-family="Arial" font-size="14.00" fill="#c6c5fe">sortedUniq.js</text>
</g>
<!-- sortedUniq.js&#45;&gt;.internal/baseSortedUniq.js -->
<g id="edge14" class="edge">
<title>sortedUniq.js:&#45;&gt;.internal/baseSortedUniq.js:</title>
<path fill="none" stroke="#757575" d="M108.09,-46.93C118.52,-45.74 129.91,-44.45 141.5,-43.13"/>
<polygon fill="#757575" stroke="#757575" points="142.19,-46.58 151.73,-41.97 141.4,-39.62 142.19,-46.58"/>
</g>
<!-- sortedUniqBy.js -->
<g id="node14" class="node">
<title>sortedUniqBy.js</title>
<path fill="none" stroke="#c6c5fe" d="M108.33,-23C108.33,-23 7.67,-23 7.67,-23 3.83,-23 0,-19.17 0,-15.33 0,-15.33 0,-7.67 0,-7.67 0,-3.83 3.83,0 7.67,0 7.67,0 108.33,0 108.33,0 112.17,0 116,-3.83 116,-7.67 116,-7.67 116,-15.33 116,-15.33 116,-19.17 112.17,-23 108.33,-23"/>
<text text-anchor="middle" x="58" y="-7.8" font-family="Arial" font-size="14.00" fill="#c6c5fe">sortedUniqBy.js</text>
</g>
<!-- sortedUniqBy.js&#45;&gt;.internal/baseSortedUniq.js -->
<g id="edge15" class="edge">
<title>sortedUniqBy.js:&#45;&gt;.internal/baseSortedUniq.js:</title>
<path fill="none" stroke="#757575" d="M116.02,-17.66C124.27,-18.56 132.97,-19.5 141.78,-20.45"/>
<polygon fill="#757575" stroke="#757575" points="141.45,-23.93 151.77,-21.53 142.21,-16.97 141.45,-23.93"/>
</g>
</g>
</svg>
